<?xml version="1.0" standalone="no"?>
<!DOCTYPE svg PUBLIC "-//W3C//DTD SVG 1.1//EN" "http://www.w3.org/Graphics/SVG/1.1/DTD/svg11.dtd" >
<svg xmlns="http://www.w3.org/2000/svg" xmlns:xlink="http://www.w3.org/1999/xlink" version="1.1">
<metadata></metadata>
<defs>
<font id="gotham_ssmbook" horiz-adv-x="1699" >
<font-face units-per-em="2048" ascent="1638" descent="-410" />
<missing-glyph horiz-adv-x="655" />
<glyph horiz-adv-x="0" />
<glyph horiz-adv-x="682" />
<glyph unicode=" "  horiz-adv-x="655" />
<glyph unicode="&#x09;" horiz-adv-x="655" />
<glyph unicode="&#xa0;" horiz-adv-x="655" />
<glyph unicode="!" horiz-adv-x="614" d="M195 1384v107h225v-107l-60 -948h-106zM197 0v246h221v-246h-221z" />
<glyph unicode="&#x22;" horiz-adv-x="983" d="M143 895l60 596h227v-10l-184 -586h-103zM575 895l60 596h225v-10l-182 -586h-103z" />
<glyph unicode="#" horiz-adv-x="1507" d="M100 367v170h248l72 426h-238v170h269l61 358h174l-61 -358h387l63 358h172l-61 -358h219v-170h-248l-74 -426h242v-170h-270l-62 -367h-174l62 367h-387l-64 -367h-174l61 367h-217zM520 532h393l74 435h-393z" />
<glyph unicode="$" horiz-adv-x="1374" d="M123 221l108 148q97 -86 193.5 -135t208.5 -64v500q-239 58 -347.5 156t-107.5 266v2q0 167 125 276.5t324 120.5v123h149v-127q115 -11 211.5 -53t194.5 -115l-101 -150q-151 121 -311 148v-490q241 -57 351.5 -156.5t109.5 -262.5v-2q0 -171 -126 -280.5t-329 -123.5 v-211h-149v213q-276 26 -504 217zM369 1104q0 -90 55.5 -145t208.5 -99v467q-123 -7 -193.5 -69t-70.5 -152v-2zM770 164q126 9 198.5 70.5t71.5 158.5v2q0 92 -58 147t-212 95v-473z" />
<glyph unicode="%" horiz-adv-x="1802" d="M117 1122v4q0 158 96 269.5t248 111.5q99 0 177.5 -52.5t120.5 -138t42 -186.5v-4q0 -157 -97 -269t-247 -112t-245 110t-95 267zM270 0l578 780l514 711h170l-580 -784l-512 -707h-170zM272 1126q0 -105 54.5 -176t134.5 -71q81 0 132.5 70.5t51.5 172.5v4 q0 104 -55 177t-133 73q-81 0 -133 -72t-52 -174v-4zM1001 360v5q0 157 97 268.5t248 111.5q150 0 245 -110.5t95 -265.5v-4q0 -158 -96.5 -269.5t-248.5 -111.5q-149 0 -244.5 110t-95.5 266zM1157 365q0 -105 55.5 -177.5t133.5 -72.5q82 0 133 70.5t51 174.5v5 q0 104 -54.5 175.5t-134.5 71.5q-81 0 -132.5 -70.5t-51.5 -172.5v-4z" />
<glyph unicode="&#x26;" horiz-adv-x="1499" d="M100 399v4q0 288 346 426q-74 89 -107.5 163.5t-33.5 160.5v4q0 151 112.5 255t293.5 104q161 0 266.5 -99.5t105.5 -245.5v-4q0 -262 -344 -387l314 -319q91 133 174 319l155 -78q-107 -227 -211 -364l254 -256l-149 -113l-223 232q-211 -221 -478 -221 q-206 0 -340.5 116t-134.5 303zM299 406q0 -113 82.5 -188t210.5 -75q180 0 344 174l-377 390q-131 -49 -195.5 -126.5t-64.5 -168.5v-6zM492 1149q0 -61 30 -117t109 -141q272 89 272 266v4q0 86 -56 141.5t-142 55.5q-93 0 -153 -58.5t-60 -146.5v-4z" />
<glyph unicode="'" horiz-adv-x="552" d="M143 895l60 596h229v-10l-184 -586h-105z" />
<glyph unicode="(" horiz-adv-x="944" d="M150 610v2q0 291 150.5 521.5t438.5 390.5l84 -129q-242 -156 -360.5 -347t-118.5 -438v-2q0 -243 119 -434.5t360 -345.5l-84 -129q-289 162 -439 390.5t-150 520.5z" />
<glyph unicode=")" horiz-adv-x="944" d="M123 -172q240 156 358.5 346.5t118.5 435.5v2q0 245 -119 437t-358 346l84 129q289 -162 439.5 -391.5t150.5 -522.5v-2q0 -289 -151 -519t-439 -390z" />
<glyph unicode="*" horiz-adv-x="931" d="M147 1055l246 110l-246 113l64 108l219 -155l-27 264h125l-26 -264l219 155l63 -108l-245 -113l245 -110l-63 -109l-219 154l26 -264h-125l27 264l-219 -154z" />
<glyph unicode="+" horiz-adv-x="1353" d="M154 659v181h430v428h186v-428h430v-181h-430v-428h-186v428h-430z" />
<glyph unicode="," horiz-adv-x="552" d="M98 -188q168 49 156 188h-88v246h223v-211q0 -140 -64 -212.5t-200 -96.5z" />
<glyph unicode="-" horiz-adv-x="884" d="M139 545v196h606v-196h-606z" />
<glyph unicode="." horiz-adv-x="552" d="M166 0v246h223v-246h-223z" />
<glyph unicode="/" horiz-adv-x="1105" d="M-39 -272l981 1972h172l-981 -1972h-172z" />
<glyph unicode="0" horiz-adv-x="1546" d="M137 741v4q0 210 78 385t225 280.5t334 105.5q188 0 334 -104t223.5 -278t77.5 -384v-5q0 -210 -78 -385t-225.5 -280t-335.5 -105q-142 0 -261.5 60.5t-200.5 164.5t-126 244t-45 297zM340 745q0 -158 52.5 -292t153 -216.5t228.5 -82.5q129 0 228.5 81.5t150.5 214 t51 291.5v4q0 159 -52.5 293.5t-153 216.5t-228.5 82q-127 0 -226.5 -81t-151.5 -214t-52 -292v-5z" />
<glyph unicode="1" horiz-adv-x="804" d="M68 1374l374 127h142v-1501h-195v1300l-276 -86z" />
<glyph unicode="2" horiz-adv-x="1300" d="M111 0v154l532 464q169 149 235 246t66 203q0 121 -81 194.5t-201 73.5q-115 0 -202 -58.5t-181 -186.5l-142 106q73 107 143 172.5t170 104t228 38.5q206 0 338.5 -120.5t132.5 -307.5v-4q0 -83 -21 -151.5t-73 -139t-115.5 -133t-171.5 -155.5l-371 -322h766v-178 h-1052z" />
<glyph unicode="3" horiz-adv-x="1325" d="M111 238l141 129q174 -215 422 -215q130 0 217.5 75t87.5 195v4q0 128 -108 199t-287 71h-103l-37 121l449 500h-703v174h963v-145l-453 -492q98 -9 181 -37.5t151 -77.5t107 -127.5t39 -177.5v-4q0 -199 -144.5 -327t-363.5 -128q-349 0 -559 263z" />
<glyph unicode="4" horiz-adv-x="1452" d="M96 489l838 1012h172v-989h225v-164h-225v-348h-191v348h-776zM330 512h585v715z" />
<glyph unicode="5" horiz-adv-x="1327" d="M117 209l127 141q206 -196 411 -196q151 0 245.5 86.5t94.5 220.5v4q0 131 -98 212t-254 81q-149 0 -301 -78l-127 84l43 727h868v-178h-696l-29 -439q145 60 277 60q108 0 201.5 -31.5t163 -89t109.5 -145.5t40 -195v-4q0 -220 -150 -357t-389 -137q-299 0 -536 234z " />
<glyph unicode="6" horiz-adv-x="1400" d="M135 702v5q0 230 72 411.5t216 289.5t339 108q130 0 234.5 -42t209.5 -126l-110 -154q-87 73 -166.5 108t-177.5 35q-82 0 -151 -33.5t-116.5 -90.5t-81 -133.5t-49.5 -162t-16 -176.5v-10q150 209 405 209q142 0 259 -55t188.5 -161.5t71.5 -244.5v-4q0 -143 -71.5 -258 t-195 -178.5t-274.5 -63.5q-247 0 -402 152q-93 95 -138.5 226.5t-45.5 348.5zM362 461q0 -135 101 -224.5t258 -89.5q153 0 246.5 91.5t93.5 228.5v4q0 130 -96 215.5t-250 85.5q-155 0 -254 -91t-99 -216v-4z" />
<glyph unicode="7" horiz-adv-x="1294" d="M154 1313v178h1022v-148l-676 -1343h-221l673 1313h-798z" />
<glyph unicode="8" horiz-adv-x="1357" d="M117 403v5q0 128 78.5 220t216.5 144q-244 114 -244 338v4q0 113 69 204.5t186 142t257 50.5t256.5 -50.5t185 -142t68.5 -204.5v-4q0 -224 -244 -338q295 -119 295 -362v-4q0 -126 -73.5 -224t-201 -150t-286.5 -52q-244 0 -403.5 117.5t-159.5 305.5zM313 410 q0 -110 100 -186.5t267 -76.5q166 0 265 76.5t99 186.5v4q0 117 -104 191.5t-260 74.5q-157 0 -262 -74.5t-105 -191.5v-4zM360 1098q0 -113 91.5 -185.5t228.5 -72.5q135 0 226 71.5t91 184.5v4q0 103 -90.5 173t-226.5 70q-138 0 -229 -69t-91 -172v-4z" />
<glyph unicode="9" horiz-adv-x="1400" d="M139 1004v4q0 217 152.5 362.5t390.5 145.5q245 0 399 -154q90 -90 137.5 -227t47.5 -349v-4q0 -235 -77 -418t-220 -286t-330 -103q-138 0 -249.5 47.5t-215.5 133.5l111 151q92 -78 177.5 -115.5t182.5 -37.5q101 0 183 50t132 133t76.5 184t26.5 210v21 q-148 -215 -401 -215q-231 0 -377 130.5t-146 336.5zM340 1012q0 -135 96 -221t250 -86q157 0 254.5 94t97.5 223v4q0 136 -100.5 226.5t-259.5 90.5q-153 0 -245.5 -95t-92.5 -232v-4z" />
<glyph unicode=":" horiz-adv-x="575" d="M176 0v246h223v-246h-223zM176 864v244h223v-244h-223z" />
<glyph unicode=";" horiz-adv-x="575" d="M109 -188q86 25 123.5 70.5t31.5 117.5h-88v246h223v-211q0 -140 -64 -212.5t-200 -96.5zM176 864v244h223v-244h-223z" />
<glyph unicode="&#x3c;" horiz-adv-x="1353" d="M147 666v168l1004 489v-190l-803 -381l803 -383v-193z" />
<glyph unicode="=" horiz-adv-x="1353" d="M176 403v183h1002v-183h-1002zM176 913v183h1002v-183h-1002z" />
<glyph unicode="&#x3e;" horiz-adv-x="1353" d="M203 176v191l803 381l-803 385v190l1005 -489v-168z" />
<glyph unicode="?" horiz-adv-x="1163" d="M70 1266q98 117 219 180t284 63q217 0 350.5 -118t133.5 -306v-6q0 -97 -34.5 -174t-96 -128t-139 -82.5t-171.5 -45.5l-20 -213h-127l-37 346l10 11q204 6 310 80t106 202v4q0 110 -79.5 181t-211.5 71q-210 0 -374 -190zM420 0v246h221v-246h-221z" />
<glyph unicode="@" horiz-adv-x="2103" d="M121 584q0 188 73 360t197.5 297.5t298 200t365.5 74.5q153 0 295.5 -44.5t256 -124.5t198.5 -184.5t131 -231t46 -257.5q0 -105 -22.5 -193t-60.5 -148.5t-89.5 -102t-109 -61t-119.5 -19.5q-115 0 -193 46t-112 123q-151 -169 -344 -169q-162 0 -272.5 108t-110.5 283 q0 89 27 171.5t75 147t109.5 113t133.5 74.5t144 26q204 0 308 -172l28 141l162 -24l-88 -498q-14 -74 -14 -119q0 -78 46.5 -121.5t131.5 -43.5q122 0 206.5 113t84.5 325q0 116 -41 229.5t-118.5 210t-180 170.5t-234.5 116t-274 42q-239 0 -436 -116t-307.5 -312.5 t-110.5 -429.5q0 -140 41 -270t118.5 -235.5t183 -184t241.5 -121.5t286 -43q155 0 278.5 35t249.5 108l37 -57q-266 -160 -565 -160q-200 0 -377.5 73.5t-302.5 198.5t-197.5 296t-72.5 360zM721 551q0 -118 69.5 -186t180.5 -68q124 0 217 96q53 52 84 124t31 149 q0 112 -70.5 185t-177.5 73q-122 0 -221 -99q-113 -113 -113 -274z" />
<glyph unicode="A" d="M84 0l674 1501h184l672 -1501h-209l-170 385h-778l-170 -385h-203zM530 561h631l-315 711z" />
<glyph unicode="B" horiz-adv-x="1554" d="M213 0v1491h645q255 0 389 -131q99 -104 99 -244v-4q0 -234 -230 -340q146 -46 230 -131t84 -229v-4q0 -191 -148 -299.5t-397 -108.5h-672zM408 176h479q160 0 252 65.5t92 182.5v4q0 114 -94 177t-275 63h-454v-492zM408 838h415q149 0 236.5 63t87.5 182v4 q0 106 -81 167t-228 61h-430v-477z" />
<glyph unicode="C" horiz-adv-x="1595" d="M147 741v4q0 157 57 298.5t156 245.5t241 165.5t304 61.5q130 0 239.5 -31.5t186 -79.5t156.5 -123l-129 -145q-103 96 -211 147t-244 51q-155 0 -281.5 -77.5t-198 -211.5t-71.5 -296v-5q0 -162 71.5 -297t198 -213.5t281.5 -78.5q141 0 247.5 51.5t217.5 157.5 l129 -127q-127 -130 -266.5 -196.5t-333.5 -66.5q-158 0 -298 60t-239 162.5t-156 244t-57 299.5z" />
<glyph unicode="D" horiz-adv-x="1681" d="M213 0v1491h530q173 0 321.5 -57t251.5 -156t161.5 -235.5t58.5 -292.5v-5q0 -156 -58.5 -293.5t-161.5 -237t-251.5 -157t-321.5 -57.5h-530zM410 180h333q131 0 241.5 43t185.5 118t117 178t42 222v4q0 158 -71.5 286.5t-206 204t-308.5 75.5h-333v-1131z" />
<glyph unicode="E" horiz-adv-x="1443" d="M213 0v1491h1085v-178h-888v-473h792v-178h-792v-484h899v-178h-1096z" />
<glyph unicode="F" horiz-adv-x="1413" d="M213 0v1491h1083v-180h-886v-494h790v-180h-790v-637h-197z" />
<glyph unicode="G" horiz-adv-x="1685" d="M147 741v4q0 153 56 294t153.5 246.5t239.5 168t305 62.5q182 0 311 -49t250 -150l-125 -150q-98 83 -199.5 125.5t-244.5 42.5q-152 0 -277 -80t-194.5 -214t-69.5 -291v-5q0 -170 68.5 -304t198 -211.5t299.5 -77.5q116 0 223 38t184 101v342h-430v174h621v-604 q-116 -101 -271.5 -164.5t-335.5 -63.5q-228 0 -403 102.5t-267 276t-92 387.5z" />
<glyph unicode="H" horiz-adv-x="1634" d="M213 0v1491h197v-649h815v649h198v-1491h-198v659h-815v-659h-197z" />
<glyph unicode="I" horiz-adv-x="653" d="M227 0v1491h199v-1491h-199z" />
<glyph unicode="J" horiz-adv-x="1198" d="M68 236l137 126q71 -103 147.5 -152.5t182.5 -49.5q123 0 198.5 88t75.5 250v993h201v-993q0 -255 -140 -392q-126 -126 -338 -126q-297 0 -464 256z" />
<glyph unicode="K" horiz-adv-x="1552" d="M213 0v1491h197v-848l811 848h252l-635 -647l661 -844h-244l-553 707l-292 -297v-410h-197z" />
<glyph unicode="L" horiz-adv-x="1329" d="M213 0v1491h197v-1311h823v-180h-1020z" />
<glyph unicode="M" horiz-adv-x="1865" d="M213 0v1491h203l516 -780l516 780h205v-1491h-197v1167l-522 -770h-8l-520 766v-1163h-193z" />
<glyph unicode="N" d="M213 0v1491h182l897 -1145v1145h195v-1491h-162l-919 1174v-1174h-193z" />
<glyph unicode="O" horiz-adv-x="1826" d="M147 741v4q0 154 56.5 295t156 246t244.5 167.5t311 62.5q167 0 311 -61.5t242.5 -166t154.5 -244.5t56 -294v-5q0 -154 -56.5 -294.5t-156 -245.5t-244 -167.5t-311.5 -62.5t-311 61.5t-242.5 166t-154.5 244.5t-56 294zM352 745q0 -161 72 -295.5t201.5 -214 t289.5 -79.5q161 0 289.5 78.5t199.5 212t71 294.5v4q0 120 -42.5 228.5t-116.5 188t-179.5 126.5t-225.5 47q-160 0 -289 -78.5t-199.5 -212t-70.5 -294.5v-5z" />
<glyph unicode="P" horiz-adv-x="1439" d="M213 0v1491h567q256 0 408.5 -129.5t152.5 -349.5v-4q0 -119 -47 -214.5t-128 -156.5t-187 -93t-227 -32h-342v-512h-197zM410 690h350q172 0 277.5 86t105.5 225v5q0 147 -102.5 226t-276.5 79h-354v-621z" />
<glyph unicode="Q" horiz-adv-x="1826" d="M147 741v4q0 154 56.5 295t156 246t244.5 167.5t311 62.5q167 0 311 -61.5t242.5 -166t154.5 -244.5t56 -294v-5q0 -274 -168 -485l189 -162l-131 -143l-193 172q-202 -152 -465 -152q-167 0 -311 61.5t-242.5 166t-154.5 244.5t-56 294zM352 745q0 -161 72 -295.5 t201.5 -214t289.5 -79.5q180 0 318 96l-272 235l131 146l274 -250q109 153 109 358v4q0 120 -42.5 228.5t-116.5 188t-179.5 126.5t-225.5 47q-160 0 -289 -78.5t-199.5 -212t-70.5 -294.5v-5z" />
<glyph unicode="R" horiz-adv-x="1556" d="M213 0v1491h647q279 0 426 -150q119 -116 119 -301v-4q0 -178 -105.5 -290.5t-283.5 -149.5l440 -596h-237l-412 561h-397v-561h-197zM410 737h436q161 0 260.5 78.5t99.5 210.5v4q0 132 -95 206.5t-265 74.5h-436v-574z" />
<glyph unicode="S" horiz-adv-x="1380" d="M115 217l121 143q118 -105 235 -154.5t262 -49.5q140 0 227 65t87 168v4q0 67 -29.5 111.5t-111.5 82.5t-232 72q-131 29 -220.5 64t-154.5 86t-95 120.5t-30 164.5v4q0 181 140 297t356 116q160 0 286 -45t242 -139l-111 -151q-196 159 -421 159q-133 0 -214 -63 t-81 -156v-4q0 -71 31.5 -116.5t116 -84t241.5 -73.5q252 -57 367.5 -155t115.5 -271v-4q0 -194 -144 -311t-372 -117q-348 0 -612 237z" />
<glyph unicode="T" horiz-adv-x="1384" d="M100 1309v182h1184v-182h-493v-1309h-197v1309h-494z" />
<glyph unicode="U" horiz-adv-x="1632" d="M188 627v864h199v-854q0 -229 114 -354t318 -125q199 0 312.5 120t113.5 349v864h197v-852q0 -320 -169 -491t-458 -171t-458 168.5t-169 481.5z" />
<glyph unicode="V" horiz-adv-x="1613" d="M84 1491h219l506 -1243l508 1243h213l-635 -1501h-176z" />
<glyph unicode="W" horiz-adv-x="2379" d="M98 1491h215l404 -1200l395 1204h164l395 -1204l406 1200h207l-529 -1501h-168l-397 1167l-395 -1167h-168z" />
<glyph unicode="X" horiz-adv-x="1562" d="M100 0l562 760l-541 731h233l430 -592l430 592h228l-541 -729l561 -762h-231l-453 621l-450 -621h-228z" />
<glyph unicode="Y" horiz-adv-x="1542" d="M59 1491h236l477 -721l481 721h230l-613 -897v-594h-198v590z" />
<glyph unicode="Z" horiz-adv-x="1499" d="M150 0v137l940 1180h-910v174h1172v-137l-940 -1180h940v-174h-1202z" />
<glyph unicode="[" horiz-adv-x="962" d="M205 -276v1767h622v-150h-440v-1468h440v-149h-622z" />
<glyph unicode="\" horiz-adv-x="1105" d="M-8 1700h174l979 -1972h-172z" />
<glyph unicode="]" horiz-adv-x="962" d="M133 -127h442v1468h-442v150h625v-1767h-625v149z" />
<glyph unicode="^" horiz-adv-x="1081" d="M139 1051l330 444h143l330 -444h-162l-241 313l-242 -313h-158z" />
<glyph unicode="_" horiz-adv-x="1294" d="M4 -186h1286v-154h-1286v154z" />
<glyph unicode="`" horiz-adv-x="1081" d="M303 1501l189 86l206 -319h-147z" />
<glyph unicode="a" horiz-adv-x="1253" d="M104 319v5q0 173 128 265.5t341 92.5q172 0 328 -47v37q0 137 -81.5 209.5t-231.5 72.5q-166 0 -330 -77l-55 153q102 46 196.5 70t210.5 24q238 0 361 -123q114 -114 114 -329v-672h-186v158q-145 -183 -387 -183q-107 0 -198 38t-150.5 118t-59.5 188zM295 330 q0 -94 75 -149.5t185 -55.5q148 0 248 79t100 202v96q-143 47 -303 47q-145 0 -225 -58t-80 -157v-4z" />
<glyph unicode="b" horiz-adv-x="1435" d="M184 0v1554h193v-657q161 236 411 236q99 0 192.5 -39.5t168 -111t119.5 -182.5t45 -243v-4q0 -132 -45 -243.5t-119 -183.5t-167.5 -111.5t-193.5 -39.5q-251 0 -411 226v-201h-193zM371 553q0 -177 112.5 -292.5t264.5 -115.5q157 0 262.5 111t105.5 295v4 q0 181 -107 294.5t-261 113.5q-73 0 -141 -30t-120.5 -82t-84 -129t-31.5 -165v-4z" />
<glyph unicode="c" horiz-adv-x="1232" d="M119 549v4q0 155 73.5 288t205.5 212.5t292 79.5q146 0 250.5 -52t192.5 -145l-123 -131q-74 76 -148.5 117t-173.5 41q-104 0 -190.5 -54.5t-135.5 -148t-49 -203.5v-4q0 -172 110 -290t275 -118q171 0 324 156l119 -115q-92 -102 -198.5 -156.5t-254.5 -54.5 q-159 0 -290.5 78t-205 209.5t-73.5 286.5z" />
<glyph unicode="d" horiz-adv-x="1435" d="M123 551v4q0 132 44.5 243.5t118 183.5t167 111.5t194.5 39.5q249 0 412 -226v647h190v-1554h-190v211q-164 -236 -412 -236q-100 0 -193.5 39.5t-167.5 111t-118.5 182.5t-44.5 243zM319 553q0 -180 107.5 -294t259.5 -114q74 0 142 30t120.5 82t83.5 129.5t31 166.5v4 q0 176 -112 291t-265 115q-156 0 -261.5 -111t-105.5 -295v-4z" />
<glyph unicode="e" horiz-adv-x="1284" d="M119 551v4q0 158 68.5 290.5t191.5 210t274 77.5q163 0 283.5 -80.5t180 -213t59.5 -296.5q0 -3 -5 -60h-858q18 -161 121 -253.5t246 -92.5q104 0 184 38t152 112l117 -105q-87 -100 -197.5 -153.5t-259.5 -53.5q-114 0 -216 42t-177.5 116.5t-119.5 183t-44 234.5z M311 621h670q-13 151 -99 250.5t-231 99.5q-136 0 -229.5 -98t-110.5 -252z" />
<glyph unicode="f" horiz-adv-x="804" d="M96 940v164h150v92q0 189 94 283q89 86 242 86q103 0 188 -29v-166q-89 29 -156 29q-178 0 -178 -215v-80h332v-164h-330v-940h-192v940h-150z" />
<glyph unicode="g" horiz-adv-x="1435" d="M123 606v4q0 118 43.5 218t116 165.5t165 102.5t191.5 37q255 0 420 -215v190h190v-903q0 -264 -141 -402q-147 -147 -432 -147q-280 0 -502 145l82 150q193 -133 418 -133q182 0 283.5 96.5t101.5 280.5v116q-167 -225 -420 -225q-99 0 -192 36.5t-165 102t-115.5 165 t-43.5 216.5zM319 608q0 -155 106 -254.5t257 -99.5q154 0 267.5 100t113.5 252v4q0 103 -54 185.5t-140.5 126t-186.5 43.5q-153 0 -258 -97.5t-105 -255.5v-4z" />
<glyph unicode="h" horiz-adv-x="1331" d="M184 0v1554h193v-632q136 211 368 211q195 0 305.5 -120.5t110.5 -318.5v-694h-192v641q0 148 -75 231.5t-210 83.5q-134 0 -220.5 -89t-86.5 -236v-631h-193z" />
<glyph unicode="i" horiz-adv-x="591" d="M188 1329v201h215v-201h-215zM201 0v1108h190v-1108h-190z" />
<glyph unicode="j" horiz-adv-x="591" d="M-2 -180q38 -6 78 -6q58 0 91.5 35.5t33.5 107.5v1151h190v-1157q0 -150 -73.5 -224.5t-211.5 -74.5q-46 0 -108 10v158zM188 1329v201h215v-201h-215z" />
<glyph unicode="k" horiz-adv-x="1236" d="M184 0v1554h193v-1030l555 584h239l-458 -469l473 -639h-230l-374 506l-205 -209v-297h-193z" />
<glyph unicode="l" horiz-adv-x="591" d="M201 0v1554h190v-1554h-190z" />
<glyph unicode="m" horiz-adv-x="2041" d="M184 0v1108h193v-180q64 95 146 150t206 55t212.5 -58t135.5 -155q147 213 385 213q189 0 297.5 -118t108.5 -323v-692h-193v641q0 151 -70.5 233t-197.5 82q-124 0 -204.5 -85t-80.5 -236v-635h-192v645q0 147 -70.5 229t-195.5 82q-124 0 -205.5 -91t-81.5 -234v-631 h-193z" />
<glyph unicode="n" horiz-adv-x="1331" d="M184 0v1108h193v-186q136 211 368 211q195 0 305.5 -120.5t110.5 -318.5v-694h-192v641q0 148 -75 231.5t-210 83.5q-134 0 -220.5 -89t-86.5 -236v-631h-193z" />
<glyph unicode="o" horiz-adv-x="1400" d="M119 549v4q0 155 75 288t209.5 212.5t298.5 79.5q163 0 297 -78t208.5 -210t74.5 -288v-4q0 -155 -75 -287.5t-210 -211.5t-299 -79t-297.5 78t-207.5 209.5t-74 286.5zM313 553q0 -169 112 -288.5t277 -119.5q168 0 275.5 117.5t107.5 286.5v4q0 170 -111.5 290 t-275.5 120q-168 0 -276.5 -118.5t-108.5 -287.5v-4z" />
<glyph unicode="p" horiz-adv-x="1435" d="M184 -340v1448h193v-211q161 236 411 236q99 0 192.5 -39.5t168 -111t119.5 -182.5t45 -243v-4q0 -132 -45 -243.5t-119 -183.5t-167.5 -111.5t-193.5 -39.5q-251 0 -411 226v-541h-193zM371 553q0 -177 112.5 -292.5t264.5 -115.5q157 0 262.5 111t105.5 295v4 q0 181 -107 294.5t-261 113.5q-73 0 -141 -30t-120.5 -82t-84 -129t-31.5 -165v-4z" />
<glyph unicode="q" horiz-adv-x="1435" d="M123 551v4q0 132 44.5 243.5t118 183.5t167 111.5t194.5 39.5q249 0 412 -226v201h190v-1448h-190v551q-164 -236 -412 -236q-100 0 -193.5 39.5t-167.5 111t-118.5 182.5t-44.5 243zM319 553q0 -180 107.5 -294t259.5 -114q74 0 142 30t120.5 82t83.5 129.5t31 166.5v4 q0 176 -112 291t-265 115q-156 0 -261.5 -111t-105.5 -295v-4z" />
<glyph unicode="r" horiz-adv-x="882" d="M184 0v1108h193v-277q61 140 173 221q104 75 238 75q12 0 23 -1v-202h-12q-186 0 -304 -127.5t-118 -360.5v-436h-193z" />
<glyph unicode="s" horiz-adv-x="1079" d="M92 141l94 135q187 -139 377 -139q94 0 152.5 43t58.5 115v4q0 30 -15.5 55.5t-36.5 42t-61 34t-70 27.5t-83 25q-45 13 -74.5 22.5t-71 26t-68.5 32t-57.5 40t-48 52t-29.5 64t-12 79.5v4q0 147 108 236t275 89q101 0 208 -33.5t194 -90.5l-84 -142q-169 107 -324 107 q-89 0 -142.5 -41t-53.5 -105v-4q0 -18 5 -34t18.5 -30t25 -24.5t36.5 -22.5t39.5 -19t48 -18t48.5 -15.5t53 -16.5q62 -19 103.5 -34t93.5 -42.5t83 -58t52.5 -78t21.5 -104.5v-5q0 -159 -113 -248t-288 -89q-119 0 -242 42.5t-221 118.5z" />
<glyph unicode="t" horiz-adv-x="880" d="M92 940v168h150v326h190v-326h336v-168h-336v-616q0 -170 172 -170q81 0 160 39v-162q-88 -49 -207 -49q-145 0 -230 76t-85 239v643h-150z" />
<glyph unicode="u" horiz-adv-x="1331" d="M168 414v694h192v-641q0 -148 75.5 -231.5t211.5 -83.5q134 0 220.5 89.5t86.5 235.5v631h191v-1108h-191v186q-136 -211 -370 -211q-194 0 -305 120.5t-111 318.5z" />
<glyph unicode="v" horiz-adv-x="1271" d="M78 1108h209l350 -887l352 887h205l-473 -1116h-170z" />
<glyph unicode="w" horiz-adv-x="1849" d="M92 1108h201l270 -850l283 854h162l282 -854l273 850h196l-381 -1116h-170l-282 837l-285 -837h-170z" />
<glyph unicode="x" horiz-adv-x="1243" d="M86 0l424 563l-408 545h215l306 -416l307 416h211l-412 -541l428 -567h-217l-322 438l-321 -438h-211z" />
<glyph unicode="y" horiz-adv-x="1280" d="M76 1108h209l374 -893l336 893h203l-457 -1143q-70 -171 -154 -242t-214 -71q-122 0 -244 61l66 148q77 -41 165 -41q69 0 116.5 40.5t90.5 141.5z" />
<glyph unicode="z" horiz-adv-x="1204" d="M125 0v127l706 821h-681v160h935v-127l-706 -819h706v-162h-960z" />
<glyph unicode="{" horiz-adv-x="1046" d="M125 537v147h55q136 0 192 61t56 191q0 18 -1 81t-1 79q0 69 11.5 122t42.5 102t83.5 85.5t135 67t196.5 51.5l31 -127q-86 -23 -143 -46.5t-92.5 -49t-54 -62t-24.5 -74t-6 -96.5q0 -21 1 -79t1 -81q0 -126 -56 -195.5t-165 -103.5q113 -36 167 -103t54 -194 q0 -23 -1 -80.5t-1 -78.5q0 -59 6 -96.5t24.5 -74t54 -62t92.5 -49t143 -46.5l-31 -127q-114 21 -196.5 51.5t-135 67t-83.5 85.5t-42.5 102t-11.5 122q0 16 1 79t1 81q0 130 -56 190t-192 60h-55z" />
<glyph unicode="|" horiz-adv-x="679" d="M260 -272v1972h160v-1972h-160z" />
<glyph unicode="}" horiz-adv-x="1046" d="M121 -174q108 29 171 57t96 69t42.5 84.5t9.5 117.5q0 21 -1 78.5t-1 80.5q0 126 55.5 194.5t165.5 102.5q-112 37 -166.5 105t-54.5 194q0 23 1 81t1 79q0 74 -9.5 117.5t-42.5 84.5t-96 69t-171 57l33 127q114 -21 196.5 -51.5t135 -67t83.5 -85.5t42.5 -102t11.5 -122 q0 -16 -2.5 -79t-2.5 -81q0 -130 56 -191t192 -61h56v-147h-56q-136 0 -192 -60t-56 -190q0 -18 2.5 -81t2.5 -79q0 -69 -11.5 -122t-42.5 -102t-83.5 -85.5t-135 -67t-196.5 -51.5z" />
<glyph unicode="~" horiz-adv-x="1038" d="M156 532q33 126 81.5 182t131.5 56q55 0 159 -45q96 -41 131 -41q42 0 65.5 22.5t47.5 81.5l113 -32q-35 -125 -83.5 -180.5t-129.5 -55.5q-58 0 -162 45q-96 41 -131 41q-40 0 -63.5 -23.5t-49.5 -82.5z" />
<glyph unicode="&#xa1;" horiz-adv-x="614" d="M195 0v106l59 949h106l60 -949v-106h-225zM197 1245v246h221v-246h-221z" />
<glyph unicode="&#xa2;" horiz-adv-x="1253" d="M127 752v4q0 155 74 288t206 212t291 79h25l33 168h151l-39 -190q154 -44 275 -174l-123 -129q-99 99 -191 133l-155 -795h28q179 0 328 156l117 -111q-90 -103 -199 -159t-256 -56q-29 0 -43 2l-37 -192h-153l43 223q-166 59 -270.5 207.5t-104.5 333.5zM319 756 q0 -125 61 -225t163 -148l153 782h-4q-158 0 -265.5 -118t-107.5 -287v-4z" />
<glyph unicode="&#xa3;" horiz-adv-x="1388" d="M150 0v119l174 45v452h-174v170h174v222q0 240 133 376q130 127 344 127q160 0 268.5 -61t190.5 -172l-150 -119q-69 86 -139 129t-170 43q-119 0 -193 -74q-86 -86 -86 -253v-218h574v-170h-574v-442h735v-174h-1107z" />
<glyph unicode="&#xa5;" horiz-adv-x="1476" d="M61 1491h232l448 -696l453 696h223l-526 -776h373v-150h-430v-178h430v-149h-430v-238h-191v238h-428v149h428v178h-428v150h369z" />
<glyph unicode="&#xa7;" horiz-adv-x="1361" d="M137 756v4q0 96 72 158.5t194 85.5q-69 37 -107 92t-38 121v4q0 133 107.5 211.5t291.5 78.5q148 0 273 -52.5t215 -147.5l-117 -117q-165 162 -375 162q-98 0 -151 -35.5t-53 -93.5v-4q0 -58 70.5 -99t256.5 -84q246 -59 347.5 -127t101.5 -178v-4q0 -97 -72 -159 t-195 -85q69 -38 108.5 -93t39.5 -120v-4q0 -133 -108 -211.5t-293 -78.5q-146 0 -271.5 52.5t-216.5 147.5l119 117q165 -162 373 -162q100 0 152 36t52 93v4q0 58 -72 99.5t-255 83.5q-246 59 -347.5 127t-101.5 178zM317 780q0 -53 64.5 -94.5t222.5 -79.5 q143 -37 230 -37q92 0 151 40t59 98v4q0 53 -64 94.5t-222 79.5q-145 37 -228 37q-94 0 -153.5 -40t-59.5 -98v-4z" />
<glyph unicode="&#xa8;" horiz-adv-x="1081" d="M242 1268v217h213v-217h-213zM627 1268v217h213v-217h-213z" />
<glyph unicode="&#xa9;" horiz-adv-x="1783" d="M121 741v4q0 155 60.5 297t163.5 246t247 166t303 62q212 0 389 -103.5t278 -279.5t101 -383v-5q0 -207 -102 -384t-280 -281.5t-390 -104.5q-213 0 -390.5 103.5t-278.5 279.5t-101 383zM195 741q0 -190 90.5 -349.5t250.5 -253t355 -93.5t355.5 94.5t251.5 255 t91 350.5v5q0 190 -90.5 350t-250 253t-353.5 93q-195 0 -356.5 -94.5t-252.5 -255.5t-91 -351v-4zM500 754v4q0 170 116.5 290.5t288.5 120.5q101 0 172 -33t137 -96l-86 -94q-110 103 -225 103q-116 0 -193 -84.5t-77 -204.5v-4q0 -120 79 -205.5t193 -85.5q69 0 121 25 t111 79l82 -84q-70 -70 -143 -105.5t-175 -35.5q-170 0 -285.5 120t-115.5 290z" />
<glyph unicode="&#xaa;" horiz-adv-x="847" d="M129 610v107h559v-107h-559zM135 1057v4q0 96 70.5 147.5t189.5 51.5q84 0 168 -25v12q0 70 -42.5 107t-119.5 37q-78 0 -180 -45l-35 98q116 53 230 53q131 0 198 -70q64 -61 64 -182v-366h-117v79q-74 -94 -201 -94q-92 0 -158.5 51.5t-66.5 141.5zM256 1063 q0 -48 36.5 -75t92.5 -27q75 0 126.5 40.5t51.5 102.5v47q-67 23 -153 23q-71 0 -112.5 -29.5t-41.5 -77.5v-4z" />
<glyph unicode="&#xab;" horiz-adv-x="1224" d="M109 545v18l356 457l137 -76l-276 -387l276 -391l-137 -76zM600 545v18l356 457l138 -76l-277 -387l277 -391l-138 -76z" />
<glyph unicode="&#xad;" horiz-adv-x="884" d="M139 545v196h606v-196h-606z" />
<glyph unicode="&#xae;" horiz-adv-x="862" d="M59 1137v2q0 153 108.5 262.5t262.5 109.5q156 0 263.5 -108.5t107.5 -261.5v-2q0 -152 -108.5 -262.5t-262.5 -110.5q-155 0 -263 109.5t-108 261.5zM102 1137q0 -136 95 -233t233 -97t233 98t95 234v2q0 138 -94 235t-234 97q-137 0 -232.5 -98.5t-95.5 -235.5v-2z M283 956v381h174q67 0 108 -31.5t41 -91.5v-2q0 -42 -24.5 -72.5t-63.5 -41.5l100 -142h-96l-86 129h-74v-129h-79zM362 1149h89q35 0 54 16t19 43v2q0 27 -19.5 43t-53.5 15h-89v-119z" />
<glyph unicode="&#xaf;" horiz-adv-x="1081" d="M199 1305v149h684v-149h-684z" />
<glyph unicode="&#xb0;" horiz-adv-x="999" d="M160 1169v5q0 133 102.5 231t237.5 98t237.5 -98t102.5 -231v-5q0 -131 -103 -230t-237 -99t-237 99t-103 230zM293 1169q0 -85 59.5 -146.5t147.5 -61.5t148.5 61.5t60.5 146.5v5q0 85 -60.5 147.5t-148.5 62.5t-147.5 -62.5t-59.5 -147.5v-5z" />
<glyph unicode="&#xb1;" horiz-adv-x="1353" d="M170 0v168h1014v-168h-1014zM170 780v174h418v410h178v-410h418v-174h-418v-409h-178v409h-418z" />
<glyph unicode="&#xb2;" horiz-adv-x="860" d="M127 903v107l303 260q87 74 123.5 124.5t36.5 106.5q0 59 -43 97t-107 38q-120 0 -213 -137l-92 66q62 92 135 139t179 47q117 0 193.5 -68.5t76.5 -171.5q0 -84 -43 -148t-148 -153l-231 -194h428v-113h-598z" />
<glyph unicode="&#xb3;" horiz-adv-x="860" d="M109 1028l79 86q105 -121 238 -121q69 0 116.5 41.5t47.5 104.5q0 67 -56.5 105t-148.5 38h-76l-20 78l258 256h-389v113h547v-99l-259 -252q120 -10 195.5 -69.5t75.5 -167.5q0 -114 -83.5 -186t-209.5 -72q-187 0 -315 145z" />
<glyph unicode="&#xb4;" horiz-adv-x="1081" d="M383 1268l207 319l188 -86l-248 -233h-147z" />
<glyph unicode="&#xb5;" horiz-adv-x="1433" d="M184 -340v1448h193v-635q0 -143 83.5 -234.5t215.5 -91.5q131 0 215 92t84 234v635h192v-823q3 -70 37 -102.5t101 -32.5q50 0 77 8v-158q-58 -14 -125 -14q-217 0 -262 180q-56 -90 -137.5 -138t-177.5 -48q-107 0 -193.5 52.5t-132.5 151.5h-4q25 -170 25 -268v-256 h-191z" />
<glyph unicode="&#xb6;" horiz-adv-x="1132" d="M106 1018v4q0 217 156.5 343t409.5 126h260v-1491h-199v551h-28q-172 0 -305.5 52t-213.5 159.5t-80 255.5z" />
<glyph unicode="&#xb7;" horiz-adv-x="552" d="M166 522v244h223v-244h-223z" />
<glyph unicode="&#xb8;" horiz-adv-x="1081" d="M315 -258l197 289h147l-165 -367z" />
<glyph unicode="&#xb9;" horiz-adv-x="700" d="M125 1651l240 92h96v-840h-123v709l-178 -68z" />
<glyph unicode="&#xba;" horiz-adv-x="847" d="M109 1180v4q0 131 91 224t226 93q134 0 223.5 -91.5t89.5 -223.5v-4q0 -131 -91 -224.5t-226 -93.5t-224 92.5t-89 223.5zM117 610v107h614v-107h-614zM233 1182q0 -86 55 -146.5t138 -60.5t135.5 60t52.5 145v4q0 86 -55 146.5t-137 60.5q-83 0 -136 -59.5t-53 -145.5 v-4z" />
<glyph unicode="&#xbb;" horiz-adv-x="1224" d="M129 164l279 389l-279 389l137 78l357 -457v-18l-357 -455zM623 164l276 389l-276 389l137 78l356 -457v-18l-356 -455z" />
<glyph unicode="&#xbc;" horiz-adv-x="1775" d="M123 1413l239 90h97v-837h-123v708l-178 -67zM291 0l530 768l484 723h125l-531 -768l-483 -723h-125zM1018 293l407 545h134v-553h114v-103h-114v-186h-117v186h-402zM1137 283h307v407z" />
<glyph unicode="&#xbd;" horiz-adv-x="1775" d="M123 1413l239 90h97v-837h-123v708l-178 -67zM270 0l531 768l483 723h125l-530 -768l-484 -723h-125zM1057 0v106l303 261q87 74 123.5 124.5t36.5 106.5q0 59 -43 97t-107 38q-120 0 -213 -137l-92 66q62 92 134.5 139t178.5 47q117 0 194 -68.5t77 -171.5 q0 -84 -43 -148t-148 -153l-231 -194h428v-113h-598z" />
<glyph unicode="&#xbe;" horiz-adv-x="1935" d="M113 791l80 86q105 -121 237 -121q69 0 116.5 41t47.5 104q0 67 -56.5 105t-148.5 38h-76l-20 76l258 256h-389v115h547v-98l-258 -252q120 -10 195 -69.5t75 -168.5q0 -114 -83.5 -187t-209.5 -73q-184 0 -315 148zM440 0l531 768l483 723h125l-530 -768l-484 -723h-125 zM1178 293l407 545h133v-553h115v-103h-115v-186h-116v186h-402zM1296 283h308v407z" />
<glyph unicode="&#xbf;" horiz-adv-x="1163" d="M106 406v6q0 97 34 174t95 128t138.5 82.5t171.5 45.5l20 213h129l35 -346l-10 -11q-204 -6 -309 -80t-105 -202v-4q0 -109 79 -180.5t210 -71.5q214 0 375 190l125 -125q-99 -117 -221 -180t-283 -63q-217 0 -350.5 118t-133.5 306zM520 1245v246h223v-246h-223z" />
<glyph unicode="&#xc0;" d="M84 0l674 1501h184l672 -1501h-209l-170 385h-778l-170 -385h-203zM520 1841l189 84l221 -285h-156zM530 561h631l-315 711z" />
<glyph unicode="&#xc1;" d="M84 0l674 1501h184l672 -1501h-209l-170 385h-778l-170 -385h-203zM530 561h631l-315 711zM770 1640l223 285l187 -84l-252 -201h-158z" />
<glyph unicode="&#xc2;" d="M84 0l674 1501h184l672 -1501h-209l-170 385h-778l-170 -385h-203zM518 1636l242 262h180l242 -262h-174l-160 127l-160 -127h-170zM530 561h631l-315 711z" />
<glyph unicode="&#xc3;" d="M84 0l674 1501h184l672 -1501h-209l-170 385h-778l-170 -385h-203zM489 1655q35 119 84 175t127 56q56 0 172 -47q88 -35 123 -35q41 0 65 22.5t48 78.5l117 -35q-33 -119 -82 -174.5t-129 -55.5q-53 0 -172 48q-85 34 -123 34q-40 0 -64.5 -22.5t-48.5 -77.5zM530 561 h631l-315 711z" />
<glyph unicode="&#xc4;" d="M84 0l674 1501h184l672 -1501h-209l-170 385h-778l-170 -385h-203zM530 561h631l-315 711zM535 1640v207h219v-207h-219zM946 1640v207h217v-207h-217z" />
<glyph unicode="&#xc5;" d="M84 0l633 1413q-51 28 -80 75.5t-29 106.5q0 91 71 153t171 62t171 -62t71 -153q0 -58 -30 -105.5t-81 -76.5l633 -1413h-209l-170 385h-778l-170 -385h-203zM530 561h631l-315 711zM709 1595q0 -56 40 -92.5t101 -36.5q60 0 99.5 36.5t39.5 92.5q0 54 -39.5 90.5 t-99.5 36.5q-61 0 -101 -36.5t-40 -90.5z" />
<glyph unicode="&#xc6;" horiz-adv-x="2242" d="M41 0l864 1491h1192v-178h-848v-473h752v-178h-752v-484h858v-178h-1054v385h-584l-223 -385h-205zM565 561h488v756h-49z" />
<glyph unicode="&#xc7;" horiz-adv-x="1595" d="M147 741v4q0 157 57 298.5t156 245.5t241 165.5t304 61.5q130 0 239.5 -31.5t186 -79.5t156.5 -123l-129 -145q-103 96 -211 147t-244 51q-155 0 -281.5 -77.5t-198 -211.5t-71.5 -296v-5q0 -162 71.5 -297t198 -213.5t281.5 -78.5q141 0 247.5 51.5t217.5 157.5 l129 -127q-81 -82 -157 -135t-179 -87.5t-225 -38.5l-141 -313l-179 78l164 242q-278 40 -455.5 252.5t-177.5 504.5z" />
<glyph unicode="&#xc8;" horiz-adv-x="1443" d="M213 0v1491h1085v-178h-888v-473h792v-178h-792v-484h899v-178h-1096zM430 1821l188 84l222 -285h-156z" />
<glyph unicode="&#xc9;" horiz-adv-x="1443" d="M213 0v1491h1085v-178h-888v-473h792v-178h-792v-484h899v-178h-1096zM680 1620l223 285l187 -84l-252 -201h-158z" />
<glyph unicode="&#xca;" horiz-adv-x="1443" d="M213 0v1491h1085v-178h-888v-473h792v-178h-792v-484h899v-178h-1096zM428 1620l242 262h180l242 -262h-174l-160 127l-160 -127h-170z" />
<glyph unicode="&#xcb;" horiz-adv-x="1443" d="M213 0v1491h1085v-178h-888v-473h792v-178h-792v-484h899v-178h-1096zM446 1620v207h220v-207h-220zM858 1620v207h217v-207h-217z" />
<glyph unicode="&#xcc;" horiz-adv-x="653" d="M-4 1821l188 84l222 -285h-156zM227 0v1491h199v-1491h-199z" />
<glyph unicode="&#xcd;" horiz-adv-x="653" d="M227 0v1491h199v-1491h-199zM246 1620l223 285l186 -84l-252 -201h-157z" />
<glyph unicode="&#xce;" horiz-adv-x="653" d="M-6 1620l242 262h180l241 -262h-174l-159 127l-160 -127h-170zM227 0v1491h199v-1491h-199z" />
<glyph unicode="&#xcf;" horiz-adv-x="653" d="M12 1620v207h219v-207h-219zM227 0v1491h199v-1491h-199zM424 1620v207h217v-207h-217z" />
<glyph unicode="&#xd0;" horiz-adv-x="1744" d="M117 674v151h159v666h531q173 0 321 -57t251 -156t161.5 -235.5t58.5 -292.5v-5q0 -156 -58.5 -293.5t-161 -237t-251 -157t-321.5 -57.5h-531v674h-159zM475 180h332q131 0 241.5 43t185.5 118t117 178t42 222v4q0 158 -71.5 286.5t-206 204t-308.5 75.5h-332v-486h424 v-151h-424v-494z" />
<glyph unicode="&#xd1;" d="M213 0v1491h182l897 -1145v1145h195v-1491h-162l-919 1174v-1174h-193zM489 1628q35 119 84.5 175.5t126.5 56.5q53 0 172 -48q85 -34 123 -34q41 0 65 22t48 78l117 -35q-33 -119 -82 -174t-129 -55q-56 0 -172 47q-88 35 -123 35q-40 0 -64.5 -22.5t-48.5 -78.5z" />
<glyph unicode="&#xd2;" horiz-adv-x="1826" d="M147 741v4q0 154 56.5 295t156 246t244.5 167.5t311 62.5q167 0 311 -61.5t242.5 -166t154.5 -244.5t56 -294v-5q0 -154 -56.5 -294.5t-156 -245.5t-244 -167.5t-311.5 -62.5t-311 61.5t-242.5 166t-154.5 244.5t-56 294zM352 745q0 -161 72 -295.5t201.5 -214 t289.5 -79.5q161 0 289.5 78.5t199.5 212t71 294.5v4q0 120 -42.5 228.5t-116.5 188t-179.5 126.5t-225.5 47q-160 0 -289 -78.5t-199.5 -212t-70.5 -294.5v-5zM584 1841l188 84l221 -285h-155z" />
<glyph unicode="&#xd3;" horiz-adv-x="1826" d="M147 741v4q0 154 56.5 295t156 246t244.5 167.5t311 62.5q167 0 311 -61.5t242.5 -166t154.5 -244.5t56 -294v-5q0 -154 -56.5 -294.5t-156 -245.5t-244 -167.5t-311.5 -62.5t-311 61.5t-242.5 166t-154.5 244.5t-56 294zM352 745q0 -161 72 -295.5t201.5 -214 t289.5 -79.5q161 0 289.5 78.5t199.5 212t71 294.5v4q0 120 -42.5 228.5t-116.5 188t-179.5 126.5t-225.5 47q-160 0 -289 -78.5t-199.5 -212t-70.5 -294.5v-5zM834 1640l223 285l186 -84l-252 -201h-157z" />
<glyph unicode="&#xd4;" horiz-adv-x="1826" d="M147 741v4q0 154 56.5 295t156 246t244.5 167.5t311 62.5q167 0 311 -61.5t242.5 -166t154.5 -244.5t56 -294v-5q0 -154 -56.5 -294.5t-156 -245.5t-244 -167.5t-311.5 -62.5t-311 61.5t-242.5 166t-154.5 244.5t-56 294zM352 745q0 -161 72 -295.5t201.5 -214 t289.5 -79.5q161 0 289.5 78.5t199.5 212t71 294.5v4q0 120 -42.5 228.5t-116.5 188t-179.5 126.5t-225.5 47q-160 0 -289 -78.5t-199.5 -212t-70.5 -294.5v-5zM582 1640l241 263h181l241 -263h-174l-160 127l-159 -127h-170z" />
<glyph unicode="&#xd5;" horiz-adv-x="1826" d="M147 741v4q0 154 56.5 295t156 246t244.5 167.5t311 62.5q167 0 311 -61.5t242.5 -166t154.5 -244.5t56 -294v-5q0 -154 -56.5 -294.5t-156 -245.5t-244 -167.5t-311.5 -62.5t-311 61.5t-242.5 166t-154.5 244.5t-56 294zM352 745q0 -161 72 -295.5t201.5 -214 t289.5 -79.5q161 0 289.5 78.5t199.5 212t71 294.5v4q0 120 -42.5 228.5t-116.5 188t-179.5 126.5t-225.5 47q-160 0 -289 -78.5t-199.5 -212t-70.5 -294.5v-5zM553 1655q35 119 84 175t127 56q56 0 172 -47q88 -35 123 -35q41 0 64.5 22t47.5 79l117 -35 q-33 -119 -82 -174.5t-129 -55.5q-53 0 -172 48q-85 34 -123 34q-40 0 -64 -22t-48 -78z" />
<glyph unicode="&#xd6;" horiz-adv-x="1826" d="M147 741v4q0 154 56.5 295t156 246t244.5 167.5t311 62.5q167 0 311 -61.5t242.5 -166t154.5 -244.5t56 -294v-5q0 -154 -56.5 -294.5t-156 -245.5t-244 -167.5t-311.5 -62.5t-311 61.5t-242.5 166t-154.5 244.5t-56 294zM352 745q0 -161 72 -295.5t201.5 -214 t289.5 -79.5q161 0 289.5 78.5t199.5 212t71 294.5v4q0 120 -42.5 228.5t-116.5 188t-179.5 126.5t-225.5 47q-160 0 -289 -78.5t-199.5 -212t-70.5 -294.5v-5zM600 1640v207h219v-207h-219zM1012 1640v207h217v-207h-217z" />
<glyph unicode="&#xd7;" horiz-adv-x="1353" d="M188 385l371 363l-371 362l127 127l365 -369l362 369l123 -121l-368 -364l368 -363l-127 -127l-362 369l-365 -369z" />
<glyph unicode="&#xd8;" horiz-adv-x="1826" d="M129 -10l211 233q-93 103 -143 237t-50 281v4q0 154 56.5 295t156 246t244.5 167.5t311 62.5q258 0 459 -148l121 133h203l-211 -233q93 -105 142.5 -238t49.5 -280v-5q0 -154 -56.5 -294.5t-156 -245.5t-244 -167.5t-311.5 -62.5q-258 0 -458 146l-121 -131h-203z M348 748q0 -218 125 -381l776 858q-146 114 -338 114q-161 0 -291 -79t-201 -213.5t-71 -296.5v-2zM575 264q147 -112 340 -112q161 0 291 79t201.5 213.5t71.5 296.5v2q0 216 -125 379z" />
<glyph unicode="&#xd9;" horiz-adv-x="1632" d="M188 627v864h199v-854q0 -229 114 -354t318 -125q199 0 312.5 120t113.5 349v864h197v-852q0 -320 -169 -491t-458 -171t-458 168.5t-169 481.5zM485 1815l189 83l221 -284h-156z" />
<glyph unicode="&#xda;" horiz-adv-x="1632" d="M188 627v864h199v-854q0 -229 114 -354t318 -125q199 0 312.5 120t113.5 349v864h197v-852q0 -320 -169 -491t-458 -171t-458 168.5t-169 481.5zM735 1614l223 284l187 -83l-252 -201h-158z" />
<glyph unicode="&#xdb;" horiz-adv-x="1632" d="M188 627v864h199v-854q0 -229 114 -354t318 -125q199 0 312.5 120t113.5 349v864h197v-852q0 -320 -169 -491t-458 -171t-458 168.5t-169 481.5zM483 1614l242 262h180l242 -262h-174l-160 127l-160 -127h-170z" />
<glyph unicode="&#xdc;" horiz-adv-x="1632" d="M188 627v864h199v-854q0 -229 114 -354t318 -125q199 0 312.5 120t113.5 349v864h197v-852q0 -320 -169 -491t-458 -171t-458 168.5t-169 481.5zM502 1614v207h219v-207h-219zM913 1614v207h217v-207h-217z" />
<glyph unicode="&#xdd;" horiz-adv-x="1542" d="M59 1491h236l477 -721l481 721h230l-613 -897v-594h-198v590zM690 1614l223 284l187 -83l-252 -201h-158z" />
<glyph unicode="&#xde;" horiz-adv-x="1449" d="M213 0v1491h197v-250h370q256 0 408.5 -129.5t152.5 -349.5v-4q0 -119 -47 -214.5t-128 -156.5t-187 -93t-227 -32h-342v-262h-197zM410 440h350q172 0 277.5 86.5t105.5 225.5v4q0 148 -102.5 227.5t-276.5 79.5h-354v-623z" />
<glyph unicode="&#xdf;" horiz-adv-x="1337" d="M184 0v1067q0 229 133.5 365.5t358.5 136.5q201 0 322.5 -110t121.5 -277v-6q0 -136 -78 -230.5t-200 -150.5q75 -19 138.5 -49t117 -75t84 -110.5t30.5 -144.5v-4q0 -198 -156 -309.5t-423 -106.5v151q182 6 282.5 74t100.5 193v4q0 116 -102.5 186.5t-280.5 89.5v140 q291 110 291 327v6q0 105 -71.5 170.5t-186.5 65.5q-127 0 -208 -90.5t-81 -239.5v-1073h-193z" />
<glyph unicode="&#xe0;" horiz-adv-x="1253" d="M104 319v5q0 173 128 265.5t341 92.5q172 0 328 -47v37q0 137 -81.5 209.5t-231.5 72.5q-166 0 -330 -77l-55 153q102 46 196.5 70t210.5 24q238 0 361 -123q114 -114 114 -329v-672h-186v158q-145 -183 -387 -183q-107 0 -198 38t-150.5 118t-59.5 188zM295 330 q0 -94 75 -149.5t185 -55.5q148 0 248 79t100 202v96q-143 47 -303 47q-145 0 -225 -58t-80 -157v-4zM311 1501l189 86l207 -319h-148z" />
<glyph unicode="&#xe1;" horiz-adv-x="1253" d="M104 319v5q0 173 128 265.5t341 92.5q172 0 328 -47v37q0 137 -81.5 209.5t-231.5 72.5q-166 0 -330 -77l-55 153q102 46 196.5 70t210.5 24q238 0 361 -123q114 -114 114 -329v-672h-186v158q-145 -183 -387 -183q-107 0 -198 38t-150.5 118t-59.5 188zM295 330 q0 -94 75 -149.5t185 -55.5q148 0 248 79t100 202v96q-143 47 -303 47q-145 0 -225 -58t-80 -157v-4zM551 1268l207 319l188 -86l-248 -233h-147z" />
<glyph unicode="&#xe2;" horiz-adv-x="1253" d="M104 319v5q0 173 128 265.5t341 92.5q172 0 328 -47v37q0 137 -81.5 209.5t-231.5 72.5q-166 0 -330 -77l-55 153q102 46 196.5 70t210.5 24q238 0 361 -123q114 -114 114 -329v-672h-186v158q-145 -183 -387 -183q-107 0 -198 38t-150.5 118t-59.5 188zM295 330 q0 -94 75 -149.5t185 -55.5q148 0 248 79t100 202v96q-143 47 -303 47q-145 0 -225 -58t-80 -157v-4zM309 1268l234 288h172l233 -288h-160l-161 143l-162 -143h-156z" />
<glyph unicode="&#xe3;" horiz-adv-x="1253" d="M104 319v5q0 173 128 265.5t341 92.5q172 0 328 -47v37q0 137 -81.5 209.5t-231.5 72.5q-166 0 -330 -77l-55 153q102 46 196.5 70t210.5 24q238 0 361 -123q114 -114 114 -329v-672h-186v158q-145 -183 -387 -183q-107 0 -198 38t-150.5 118t-59.5 188zM272 1280 q33 125 82 180.5t131 55.5q61 0 160 -43q100 -41 131 -41q42 0 65.5 22.5t47.5 81.5l112 -33q-33 -125 -82 -180t-131 -55q-60 0 -159 43q-8 3 -28 11.5t-30 12.5t-25 9.5t-26.5 7.5t-21.5 2q-41 0 -65 -23.5t-48 -83.5zM295 330q0 -94 75 -149.5t185 -55.5q148 0 248 79 t100 202v96q-143 47 -303 47q-145 0 -225 -58t-80 -157v-4z" />
<glyph unicode="&#xe4;" horiz-adv-x="1253" d="M104 319v5q0 173 128 265.5t341 92.5q172 0 328 -47v37q0 137 -81.5 209.5t-231.5 72.5q-166 0 -330 -77l-55 153q102 46 196.5 70t210.5 24q238 0 361 -123q114 -114 114 -329v-672h-186v158q-145 -183 -387 -183q-107 0 -198 38t-150.5 118t-59.5 188zM295 330 q0 -94 75 -149.5t185 -55.5q148 0 248 79t100 202v96q-143 47 -303 47q-145 0 -225 -58t-80 -157v-4zM330 1268v217h213v-217h-213zM715 1268v217h213v-217h-213z" />
<glyph unicode="&#xe5;" horiz-adv-x="1253" d="M104 319v5q0 173 128 265.5t341 92.5q172 0 328 -47v37q0 137 -81.5 209.5t-231.5 72.5q-166 0 -330 -77l-55 153q102 46 196.5 70t210.5 24q238 0 361 -123q114 -114 114 -329v-672h-186v158q-145 -183 -387 -183q-107 0 -198 38t-150.5 118t-59.5 188zM295 330 q0 -94 75 -149.5t185 -55.5q148 0 248 79t100 202v96q-143 47 -303 47q-145 0 -225 -58t-80 -157v-4zM393 1491q0 94 69.5 160.5t166.5 66.5t166 -66.5t69 -160.5q0 -95 -69 -161t-166 -66t-166.5 66t-69.5 161zM483 1491q0 -60 43 -102.5t103 -42.5t102.5 42.5t42.5 102.5 q0 59 -42.5 102t-102.5 43t-103 -43t-43 -102z" />
<glyph unicode="&#xe6;" horiz-adv-x="2045" d="M104 319v5q0 172 126.5 265t336.5 93q164 0 316 -47v37q0 138 -78 210t-225 72q-158 0 -322 -77l-55 153q103 48 193 71t206 23q153 0 255.5 -56t146.5 -165q67 107 175.5 168.5t237.5 61.5q121 0 220.5 -46.5t163.5 -127t99 -187.5t35 -229q0 -37 -2 -60h-860 q18 -161 121.5 -253.5t247.5 -92.5q102 0 182 38t152 112l116 -105q-87 -100 -196.5 -153.5t-257.5 -53.5q-133 0 -248.5 55.5t-190.5 155.5q-215 -211 -477 -211q-112 0 -205.5 38.5t-153 118.5t-59.5 187zM295 330q0 -94 73 -148.5t181 -54.5q212 0 377 180 q-37 96 -43 197q-153 45 -289 45q-141 0 -220 -58t-79 -157v-4zM1073 621h668q-8 98 -46 175.5t-111.5 126t-172.5 48.5q-135 0 -229 -98.5t-109 -251.5z" />
<glyph unicode="&#xe7;" horiz-adv-x="1232" d="M119 549v4q0 155 73.5 288t205.5 212.5t292 79.5q146 0 250.5 -52t192.5 -145l-123 -131q-74 76 -148.5 117t-173.5 41q-104 0 -190.5 -54.5t-135.5 -148t-49 -203.5v-4q0 -172 110 -290t275 -118q171 0 324 156l119 -115q-84 -95 -183.5 -148.5t-232.5 -60.5l-141 -313 l-178 78l165 246q-199 38 -325.5 196.5t-126.5 364.5z" />
<glyph unicode="&#xe8;" horiz-adv-x="1284" d="M119 551v4q0 158 68.5 290.5t191.5 210t274 77.5q163 0 283.5 -80.5t180 -213t59.5 -296.5q0 -3 -5 -60h-858q18 -161 121 -253.5t246 -92.5q104 0 184 38t152 112l117 -105q-87 -100 -197.5 -153.5t-259.5 -53.5q-114 0 -216 42t-177.5 116.5t-119.5 183t-44 234.5z M311 621h670q-13 151 -99 250.5t-231 99.5q-136 0 -229.5 -98t-110.5 -252zM334 1501l188 86l207 -319h-147z" />
<glyph unicode="&#xe9;" horiz-adv-x="1284" d="M119 551v4q0 158 68.5 290.5t191.5 210t274 77.5q163 0 283.5 -80.5t180 -213t59.5 -296.5q0 -3 -5 -60h-858q18 -161 121 -253.5t246 -92.5q104 0 184 38t152 112l117 -105q-87 -100 -197.5 -153.5t-259.5 -53.5q-114 0 -216 42t-177.5 116.5t-119.5 183t-44 234.5z M311 621h670q-13 151 -99 250.5t-231 99.5q-136 0 -229.5 -98t-110.5 -252zM573 1268l207 319l189 -86l-248 -233h-148z" />
<glyph unicode="&#xea;" horiz-adv-x="1284" d="M119 551v4q0 158 68.5 290.5t191.5 210t274 77.5q163 0 283.5 -80.5t180 -213t59.5 -296.5q0 -3 -5 -60h-858q18 -161 121 -253.5t246 -92.5q104 0 184 38t152 112l117 -105q-87 -100 -197.5 -153.5t-259.5 -53.5q-114 0 -216 42t-177.5 116.5t-119.5 183t-44 234.5z M311 621h670q-13 151 -99 250.5t-231 99.5q-136 0 -229.5 -98t-110.5 -252zM332 1268l233 288h172l234 -288h-160l-162 143l-162 -143h-155z" />
<glyph unicode="&#xeb;" horiz-adv-x="1284" d="M119 551v4q0 158 68.5 290.5t191.5 210t274 77.5q163 0 283.5 -80.5t180 -213t59.5 -296.5q0 -3 -5 -60h-858q18 -161 121 -253.5t246 -92.5q104 0 184 38t152 112l117 -105q-87 -100 -197.5 -153.5t-259.5 -53.5q-114 0 -216 42t-177.5 116.5t-119.5 183t-44 234.5z M311 621h670q-13 151 -99 250.5t-231 99.5q-136 0 -229.5 -98t-110.5 -252zM352 1268v217h213v-217h-213zM737 1268v217h213v-217h-213z" />
<glyph unicode="&#xec;" horiz-adv-x="591" d="M-23 1501l189 86l207 -319h-148zM201 0v1108h190v-1108h-190z" />
<glyph unicode="&#xed;" horiz-adv-x="591" d="M201 0v1108h190v-1108h-190zM219 1268l207 319l188 -86l-247 -233h-148z" />
<glyph unicode="&#xee;" horiz-adv-x="591" d="M-25 1268l234 288h172l233 -288h-159l-162 143l-162 -143h-156zM201 0v1108h190v-1108h-190z" />
<glyph unicode="&#xef;" horiz-adv-x="591" d="M-4 1268v217h213v-217h-213zM201 0v1108h190v-1108h-190zM381 1268v217h213v-217h-213z" />
<glyph unicode="&#xf0;" horiz-adv-x="1398" d="M119 559v4q0 117 42 219t113 172.5t165 111t196 40.5q195 0 360 -139q-75 152 -274 344l-248 -94l-51 114l196 74q-48 40 -188 149h268q83 -68 97 -81l231 88l49 -113l-180 -70q383 -376 383 -770v-4q0 -179 -71.5 -322t-205.5 -225t-309 -82q-160 0 -292 77.5 t-206.5 211.5t-74.5 295zM313 547q0 -166 111.5 -284t275.5 -118q168 0 275.5 116t107.5 288v4q0 168 -111 280.5t-286 112.5q-166 0 -269.5 -112t-103.5 -281v-6z" />
<glyph unicode="&#xf1;" horiz-adv-x="1331" d="M184 0v1108h193v-186q136 211 368 211q195 0 305.5 -120.5t110.5 -318.5v-694h-192v641q0 148 -75 231.5t-210 83.5q-134 0 -220.5 -89t-86.5 -236v-631h-193zM315 1280q33 125 82 180.5t131 55.5q61 0 160 -43q100 -41 131 -41q42 0 65.5 22.5t47.5 81.5l112 -33 q-33 -125 -82 -180t-131 -55q-60 0 -159 43q-8 3 -28 11.5t-30 12.5t-25 9.5t-26.5 7.5t-21.5 2q-41 0 -65 -23.5t-48 -83.5z" />
<glyph unicode="&#xf2;" horiz-adv-x="1400" d="M119 549v4q0 155 75 288t209.5 212.5t298.5 79.5q163 0 297 -78t208.5 -210t74.5 -288v-4q0 -155 -75 -287.5t-210 -211.5t-299 -79t-297.5 78t-207.5 209.5t-74 286.5zM313 553q0 -169 112 -288.5t277 -119.5q168 0 275.5 117.5t107.5 286.5v4q0 170 -111.5 290 t-275.5 120q-168 0 -276.5 -118.5t-108.5 -287.5v-4zM381 1501l188 86l207 -319h-147z" />
<glyph unicode="&#xf3;" horiz-adv-x="1400" d="M119 549v4q0 155 75 288t209.5 212.5t298.5 79.5q163 0 297 -78t208.5 -210t74.5 -288v-4q0 -155 -75 -287.5t-210 -211.5t-299 -79t-297.5 78t-207.5 209.5t-74 286.5zM313 553q0 -169 112 -288.5t277 -119.5q168 0 275.5 117.5t107.5 286.5v4q0 170 -111.5 290 t-275.5 120q-168 0 -276.5 -118.5t-108.5 -287.5v-4zM623 1268l206 319l189 -86l-248 -233h-147z" />
<glyph unicode="&#xf4;" horiz-adv-x="1400" d="M119 549v4q0 155 75 288t209.5 212.5t298.5 79.5q163 0 297 -78t208.5 -210t74.5 -288v-4q0 -155 -75 -287.5t-210 -211.5t-299 -79t-297.5 78t-207.5 209.5t-74 286.5zM313 553q0 -169 112 -288.5t277 -119.5q168 0 275.5 117.5t107.5 286.5v4q0 170 -111.5 290 t-275.5 120q-168 0 -276.5 -118.5t-108.5 -287.5v-4zM381 1268l233 288h172l234 -288h-160l-162 143l-161 -143h-156z" />
<glyph unicode="&#xf5;" horiz-adv-x="1400" d="M119 549v4q0 155 75 288t209.5 212.5t298.5 79.5q163 0 297 -78t208.5 -210t74.5 -288v-4q0 -155 -75 -287.5t-210 -211.5t-299 -79t-297.5 78t-207.5 209.5t-74 286.5zM313 553q0 -169 112 -288.5t277 -119.5q168 0 275.5 117.5t107.5 286.5v4q0 170 -111.5 290 t-275.5 120q-168 0 -276.5 -118.5t-108.5 -287.5v-4zM344 1280q33 125 82 180.5t131 55.5q61 0 160 -43q100 -41 131 -41q42 0 65.5 22.5t47.5 81.5l112 -33q-33 -125 -82 -180t-131 -55q-61 0 -160 43q-8 3 -28 11.5t-30 12.5t-25 9.5t-26.5 7.5t-21.5 2q-41 0 -64.5 -23.5 t-47.5 -83.5z" />
<glyph unicode="&#xf6;" horiz-adv-x="1400" d="M119 549v4q0 155 75 288t209.5 212.5t298.5 79.5q163 0 297 -78t208.5 -210t74.5 -288v-4q0 -155 -75 -287.5t-210 -211.5t-299 -79t-297.5 78t-207.5 209.5t-74 286.5zM313 553q0 -169 112 -288.5t277 -119.5q168 0 275.5 117.5t107.5 286.5v4q0 170 -111.5 290 t-275.5 120q-168 0 -276.5 -118.5t-108.5 -287.5v-4zM401 1268v217h213v-217h-213zM786 1268v217h213v-217h-213z" />
<glyph unicode="&#xf7;" horiz-adv-x="1353" d="M154 664v172h1046v-172h-1046zM559 203v235h236v-235h-236zM559 1061v235h236v-235h-236z" />
<glyph unicode="&#xf8;" horiz-adv-x="1400" d="M86 -10l170 184q-137 156 -137 375v4q0 155 75 288t209.5 212.5t298.5 79.5q190 0 338 -107l88 96h187l-172 -188q139 -158 139 -377v-4q0 -155 -75 -287.5t-210 -211.5t-299 -79q-190 0 -340 105l-86 -90h-186zM309 555q0 -138 74 -248l543 586q-99 74 -228 74 q-171 0 -280 -119.5t-109 -290.5v-2zM475 211q101 -72 227 -72q170 0 280 119.5t110 290.5v2q0 135 -76 248z" />
<glyph unicode="&#xf9;" horiz-adv-x="1331" d="M168 414v694h192v-641q0 -148 75.5 -231.5t211.5 -83.5q134 0 220.5 89.5t86.5 235.5v631h191v-1108h-191v186q-136 -211 -370 -211q-194 0 -305 120.5t-111 318.5zM338 1501l188 86l207 -319h-147z" />
<glyph unicode="&#xfa;" horiz-adv-x="1331" d="M168 414v694h192v-641q0 -148 75.5 -231.5t211.5 -83.5q134 0 220.5 89.5t86.5 235.5v631h191v-1108h-191v186q-136 -211 -370 -211q-194 0 -305 120.5t-111 318.5zM580 1268l206 319l189 -86l-248 -233h-147z" />
<glyph unicode="&#xfb;" horiz-adv-x="1331" d="M168 414v694h192v-641q0 -148 75.5 -231.5t211.5 -83.5q134 0 220.5 89.5t86.5 235.5v631h191v-1108h-191v186q-136 -211 -370 -211q-194 0 -305 120.5t-111 318.5zM336 1268l233 288h172l234 -288h-160l-162 143l-161 -143h-156z" />
<glyph unicode="&#xfc;" horiz-adv-x="1331" d="M168 414v694h192v-641q0 -148 75.5 -231.5t211.5 -83.5q134 0 220.5 89.5t86.5 235.5v631h191v-1108h-191v186q-136 -211 -370 -211q-194 0 -305 120.5t-111 318.5zM356 1268v217h213v-217h-213zM741 1268v217h213v-217h-213z" />
<glyph unicode="&#xfd;" horiz-adv-x="1280" d="M76 1108h209l374 -893l336 893h203l-457 -1143q-70 -171 -154 -242t-214 -71q-122 0 -244 61l66 148q77 -41 165 -41q69 0 116.5 40.5t90.5 141.5zM567 1268l207 319l189 -86l-248 -233h-148z" />
<glyph unicode="&#xfe;" horiz-adv-x="1435" d="M184 -340v1894h193v-657q161 236 411 236q99 0 192.5 -39.5t168 -111t119.5 -182.5t45 -243v-4q0 -132 -45 -243.5t-119 -183.5t-167.5 -111.5t-193.5 -39.5q-251 0 -411 226v-541h-193zM371 553q0 -177 112.5 -292.5t264.5 -115.5q157 0 262.5 111t105.5 295v4 q0 181 -107 294.5t-261 113.5q-73 0 -141 -30t-120.5 -82t-84 -129t-31.5 -165v-4z" />
<glyph unicode="&#xff;" horiz-adv-x="1280" d="M76 1108h209l374 -893l336 893h203l-457 -1143q-70 -171 -154 -242t-214 -71q-122 0 -244 61l66 148q77 -41 165 -41q69 0 116.5 40.5t90.5 141.5zM344 1268v217h213v-217h-213zM729 1268v217h213v-217h-213z" />
<glyph unicode="&#x152;" horiz-adv-x="2404" d="M147 741v4q0 156 58.5 293.5t161.5 237t251 157.5t320 58h1321v-178h-848v-473h754v-178h-754v-484h860v-178h-1333q-229 0 -410.5 97.5t-281 266.5t-99.5 377zM352 745q0 -118 42 -222t117 -179.5t185.5 -119.5t241.5 -44h276v1131h-276q-131 0 -241.5 -43t-185.5 -118 t-117 -178t-42 -222v-5z" />
<glyph unicode="&#x153;" horiz-adv-x="2244" d="M119 549v4q0 155 75 288t208.5 212.5t293.5 79.5q153 0 277.5 -75.5t193.5 -201.5q68 127 185 202t262 75q122 0 221.5 -46.5t164 -127t99.5 -187.5t35 -229q0 -37 -2 -60h-858q17 -161 119.5 -253.5t246.5 -92.5q102 0 182 38t152 112l119 -105q-184 -207 -455 -207 q-151 0 -276.5 74t-196.5 203q-69 -126 -195.5 -201.5t-281.5 -75.5q-156 0 -287.5 78t-206.5 209.5t-75 286.5zM313 553q0 -169 110.5 -288.5t274.5 -119.5q166 0 272.5 117.5t106.5 286.5v4q0 170 -110 290t-273 120q-167 0 -274 -119t-107 -287v-4zM1272 621h667 q-13 152 -98 251t-231 99q-135 0 -229 -98.5t-109 -251.5z" />
<glyph unicode="&#x178;" horiz-adv-x="1542" d="M59 1491h236l477 -721l481 721h230l-613 -897v-594h-198v590zM457 1614v207h219v-207h-219zM868 1614v207h217v-207h-217z" />
<glyph unicode="&#x2c6;" horiz-adv-x="1081" d="M221 1268l234 288h172l233 -288h-160l-161 143l-162 -143h-156z" />
<glyph unicode="&#x2dc;" horiz-adv-x="1081" d="M176 1280q33 125 82 180.5t131 55.5q61 0 160 -43q100 -41 131 -41q42 0 65.5 22.5t47.5 81.5l112 -33q-33 -125 -82 -180t-131 -55q-61 0 -160 43q-8 3 -28 11.5t-30 12.5t-25 9.5t-26.5 7.5t-21.5 2q-41 0 -64.5 -23.5t-47.5 -83.5z" />
<glyph unicode="&#x2000;" horiz-adv-x="962" />
<glyph unicode="&#x2001;" horiz-adv-x="1925" />
<glyph unicode="&#x2002;" horiz-adv-x="962" />
<glyph unicode="&#x2003;" horiz-adv-x="1925" />
<glyph unicode="&#x2004;" horiz-adv-x="641" />
<glyph unicode="&#x2005;" horiz-adv-x="481" />
<glyph unicode="&#x2006;" horiz-adv-x="320" />
<glyph unicode="&#x2007;" horiz-adv-x="320" />
<glyph unicode="&#x2008;" horiz-adv-x="240" />
<glyph unicode="&#x2009;" horiz-adv-x="385" />
<glyph unicode="&#x200a;" horiz-adv-x="106" />
<glyph unicode="&#x2010;" horiz-adv-x="884" d="M139 545v196h606v-196h-606z" />
<glyph unicode="&#x2011;" horiz-adv-x="884" d="M139 545v196h606v-196h-606z" />
<glyph unicode="&#x2012;" horiz-adv-x="884" d="M139 545v196h606v-196h-606z" />
<glyph unicode="&#x2013;" horiz-adv-x="1140" d="M139 551v186h862v-186h-862z" />
<glyph unicode="&#x2014;" horiz-adv-x="1929" d="M139 551v186h1649v-186h-1649z" />
<glyph unicode="&#x2018;" horiz-adv-x="552" d="M156 981v211q0 140 64 212.5t200 96.5l24 -86q-85 -25 -122 -70.5t-31 -117.5h86v-246h-221z" />
<glyph unicode="&#x2019;" horiz-adv-x="552" d="M109 1057q87 26 124 71t31 117h-88v246h223v-209q0 -142 -64 -214.5t-200 -96.5z" />
<glyph unicode="&#x201a;" horiz-adv-x="552" d="M98 -188q168 49 156 188h-88v246h223v-211q0 -140 -64 -212.5t-200 -96.5z" />
<glyph unicode="&#x201c;" horiz-adv-x="999" d="M156 981v211q0 140 64 212.5t200 96.5l24 -86q-85 -25 -122 -70.5t-31 -117.5h86v-246h-221zM602 981v211q0 140 63.5 212.5t198.5 96.5l27 -86q-166 -48 -154 -188h86v-246h-221z" />
<glyph unicode="&#x201d;" horiz-adv-x="999" d="M109 1057q87 26 124 71t31 117h-88v246h223v-209q0 -142 -64 -214.5t-200 -96.5zM555 1057q87 26 124.5 71t31.5 117h-88v246h223v-209q0 -142 -64 -214.5t-200 -96.5z" />
<glyph unicode="&#x201e;" horiz-adv-x="999" d="M98 -188q168 49 156 188h-88v246h223v-211q0 -140 -64 -212.5t-200 -96.5zM545 -188q85 25 123 70.5t32 117.5h-88v246h224v-211q0 -140 -64.5 -212.5t-200.5 -96.5z" />
<glyph unicode="&#x2022;" horiz-adv-x="1042" d="M236 748v4q0 117 84.5 199.5t201.5 82.5q115 0 200 -82.5t85 -199.5v-4q0 -118 -83.5 -200.5t-201.5 -82.5q-119 0 -202.5 82.5t-83.5 200.5z" />
<glyph unicode="&#x2026;" horiz-adv-x="1601" d="M166 0v240h217v-240h-217zM692 0v240h217v-240h-217zM1219 0v240h217v-240h-217z" />
<glyph unicode="&#x202f;" horiz-adv-x="385" />
<glyph unicode="&#x2039;" horiz-adv-x="731" d="M109 545v18l356 457l137 -76l-276 -387l276 -391l-137 -76z" />
<glyph unicode="&#x203a;" horiz-adv-x="731" d="M129 164l279 389l-279 389l137 78l357 -457v-18l-357 -455z" />
<glyph unicode="&#x205f;" horiz-adv-x="481" />
<glyph unicode="&#x20ac;" horiz-adv-x="1550" d="M125 498v147h170q-4 33 -4 98v2q0 57 6 115h-172v148h199q64 227 221 368t370 140q93 0 172 -21t141 -61t110.5 -89.5t93.5 -115.5l-150 -111q-80 114 -164.5 168.5t-206.5 54.5q-134 0 -235.5 -89.5t-149.5 -243.5h523v-148h-553q-7 -65 -7 -112v-3q0 -59 5 -100h555 v-147h-527q47 -161 155 -255t255 -93q113 0 197 58t165 175l142 -100q-99 -147 -219.5 -227.5t-288.5 -80.5q-228 0 -389.5 142.5t-219.5 380.5h-194z" />
<glyph unicode="&#x2122;" horiz-adv-x="1486" d="M63 1395v96h521v-96h-209v-559h-105v559h-207zM727 836v655h111l223 -344l221 344h109v-655h-103v491l-223 -344h-12l-224 344v-491h-102z" />
<glyph unicode="&#x25fc;" horiz-adv-x="1105" d="M0 0v1106h1106v-1106h-1106z" />
<glyph unicode="&#xfb01;" horiz-adv-x="1380" d="M96 940v164h150v92q0 189 94 283q89 86 242 86q103 0 188 -29v-166q-89 29 -156 29q-178 0 -178 -215v-80h332v-164h-330v-940h-192v940h-150zM977 1329v201h215v-201h-215zM989 0v1108h191v-1108h-191z" />
<glyph unicode="&#xfb02;" horiz-adv-x="1380" d="M96 940v164h150v92q0 189 94 283q89 86 242 86q103 0 188 -29v-166q-89 29 -156 29q-178 0 -178 -215v-80h332v-164h-330v-940h-192v940h-150zM987 0v1554h191v-1554h-191z" />
<glyph unicode="&#xfb03;" horiz-adv-x="2168" d="M96 940v164h150v92q0 189 94 283q89 86 242 86q103 0 188 -29v-166q-89 29 -156 29q-178 0 -178 -215v-80h332v-164h-330v-940h-192v940h-150zM885 940v164h149v92q0 189 94 283q89 86 242 86q104 0 189 -29v-166q-89 29 -156 29q-178 0 -178 -215v-80h331v-164h-329 v-940h-193v940h-149zM1763 1329v201h215v-201h-215zM1776 0v1108h190v-1108h-190z" />
<glyph unicode="&#xfb04;" horiz-adv-x="2168" d="M96 940v164h150v92q0 189 94 283q89 86 242 86q103 0 188 -29v-166q-89 29 -156 29q-178 0 -178 -215v-80h332v-164h-330v-940h-192v940h-150zM885 940v164h149v92q0 189 94 283q89 86 242 86q104 0 189 -29v-166q-89 29 -156 29q-178 0 -178 -215v-80h331v-164h-329 v-940h-193v940h-149zM1776 0v1554h190v-1554h-190z" />
</font>
</defs>
</svg>
